<mxfile host="app.diagrams.net" agent="Mozilla/5.0 (Windows NT 10.0; Win64; x64) AppleWebKit/537.36 (KHTML, like Gecko) Chrome/133.0.0.0 Safari/537.36 Edg/133.0.0.0" version="26.0.11">
  <diagram id="6a731a19-8d31-9384-78a2-239565b7b9f0" name="Page-1">
    <mxGraphModel dx="983" dy="1371" grid="1" gridSize="10" guides="1" tooltips="1" connect="1" arrows="1" fold="1" page="1" pageScale="1" pageWidth="1169" pageHeight="827" background="none" math="0" shadow="0">
      <root>
        <mxCell id="0" />
        <mxCell id="1" parent="0" />
        <mxCell id="2" value="начало" style="shape=mxgraph.flowchart.terminator;strokeWidth=2;gradientColor=none;gradientDirection=north;fontStyle=0;html=1;" parent="1" vertex="1">
          <mxGeometry x="670" width="120" height="60" as="geometry" />
        </mxCell>
        <mxCell id="3" value="&lt;font&gt;Ввод строки str&lt;/font&gt;" style="shape=mxgraph.flowchart.data;strokeWidth=2;gradientColor=none;gradientDirection=north;fontStyle=0;html=1;" parent="1" vertex="1">
          <mxGeometry x="620.25" y="100" width="219.5" height="80" as="geometry" />
        </mxCell>
        <mxCell id="7" style="fontStyle=1;strokeColor=#003366;strokeWidth=1;html=1;" parent="1" source="2" target="3" edge="1">
          <mxGeometry relative="1" as="geometry" />
        </mxCell>
        <mxCell id="8" style="fontStyle=1;strokeColor=#003366;strokeWidth=1;html=1;entryX=0.5;entryY=0;entryDx=0;entryDy=0;" parent="1" source="3" target="9ihKGVrwRq-hOYoFM6Ut-58" edge="1">
          <mxGeometry relative="1" as="geometry">
            <mxPoint x="731.0050000000001" y="210" as="targetPoint" />
          </mxGeometry>
        </mxCell>
        <mxCell id="9ihKGVrwRq-hOYoFM6Ut-58" value="colonIndex = str.index0f(&#39;:&#39;)" style="rounded=1;whiteSpace=wrap;html=1;absoluteArcSize=1;arcSize=14;strokeWidth=2;" parent="1" vertex="1">
          <mxGeometry x="621.5" y="230" width="219" height="50" as="geometry" />
        </mxCell>
        <mxCell id="9ihKGVrwRq-hOYoFM6Ut-63" style="fontStyle=1;strokeColor=#003366;strokeWidth=1;html=1;exitX=0.5;exitY=1;exitDx=0;exitDy=0;entryX=0.5;entryY=0;entryDx=0;entryDy=0;entryPerimeter=0;" parent="1" source="9ihKGVrwRq-hOYoFM6Ut-58" target="9ihKGVrwRq-hOYoFM6Ut-64" edge="1">
          <mxGeometry relative="1" as="geometry">
            <mxPoint x="731" y="380" as="sourcePoint" />
            <mxPoint x="690" y="580" as="targetPoint" />
          </mxGeometry>
        </mxCell>
        <mxCell id="9ihKGVrwRq-hOYoFM6Ut-64" value="colonIndex != -1?" style="strokeWidth=2;html=1;shape=mxgraph.flowchart.decision;whiteSpace=wrap;" parent="1" vertex="1">
          <mxGeometry x="634.75" y="320" width="190" height="100" as="geometry" />
        </mxCell>
        <mxCell id="9ihKGVrwRq-hOYoFM6Ut-67" value="" style="edgeStyle=segmentEdgeStyle;endArrow=classic;html=1;curved=0;rounded=0;endSize=8;startSize=8;entryX=0.5;entryY=0;entryDx=0;entryDy=0;" parent="1" edge="1">
          <mxGeometry width="50" height="50" relative="1" as="geometry">
            <mxPoint x="634" y="370" as="sourcePoint" />
            <mxPoint x="531.75" y="450" as="targetPoint" />
          </mxGeometry>
        </mxCell>
        <mxCell id="9ihKGVrwRq-hOYoFM6Ut-68" value="&lt;font style=&quot;font-size: 14px;&quot;&gt;True&lt;/font&gt;" style="text;fontStyle=0;html=1;strokeColor=none;gradientColor=none;fillColor=none;strokeWidth=2;" parent="1" vertex="1">
          <mxGeometry x="570" y="340" width="40" height="26" as="geometry" />
        </mxCell>
        <mxCell id="9ihKGVrwRq-hOYoFM6Ut-69" value="&lt;span style=&quot;font-size: 14px;&quot;&gt;False&lt;/span&gt;" style="text;fontStyle=0;html=1;strokeColor=none;gradientColor=none;fillColor=none;strokeWidth=2;" parent="1" vertex="1">
          <mxGeometry x="860" y="340" width="40" height="26" as="geometry" />
        </mxCell>
        <mxCell id="9ihKGVrwRq-hOYoFM6Ut-71" value="" style="edgeStyle=segmentEdgeStyle;endArrow=classic;html=1;curved=0;rounded=0;endSize=8;startSize=8;exitX=1;exitY=0.5;exitDx=0;exitDy=0;exitPerimeter=0;" parent="1" source="9ihKGVrwRq-hOYoFM6Ut-64" edge="1">
          <mxGeometry width="50" height="50" relative="1" as="geometry">
            <mxPoint x="413.75" y="410" as="sourcePoint" />
            <mxPoint x="930.0344827586207" y="440" as="targetPoint" />
          </mxGeometry>
        </mxCell>
        <mxCell id="3RuBWUDgJBx3NYMwp4YM-69" value="Вывод colonIndex (кол-во)&lt;div&gt;символов&lt;br&gt;&lt;div&gt;&lt;br&gt;&lt;/div&gt;&lt;/div&gt;" style="shape=mxgraph.flowchart.data;strokeWidth=2;gradientColor=none;gradientDirection=north;fontStyle=0;html=1;" parent="1" vertex="1">
          <mxGeometry x="415.25" y="450" width="219.5" height="80" as="geometry" />
        </mxCell>
        <mxCell id="3RuBWUDgJBx3NYMwp4YM-70" value="Конец" style="shape=mxgraph.flowchart.terminator;strokeWidth=2;gradientColor=none;gradientDirection=north;fontStyle=0;html=1;" parent="1" vertex="1">
          <mxGeometry x="465" y="600" width="120" height="60" as="geometry" />
        </mxCell>
        <mxCell id="Rw-t_OHXO04xblRP0RzA-20" value="Вывод двоеточие не найдено&lt;div&gt;&lt;div&gt;&lt;br&gt;&lt;/div&gt;&lt;/div&gt;" style="shape=mxgraph.flowchart.data;strokeWidth=2;gradientColor=none;gradientDirection=north;fontStyle=0;html=1;" vertex="1" parent="1">
          <mxGeometry x="810" y="440" width="229.5" height="80" as="geometry" />
        </mxCell>
        <mxCell id="Rw-t_OHXO04xblRP0RzA-21" value="Конец" style="shape=mxgraph.flowchart.terminator;strokeWidth=2;gradientColor=none;gradientDirection=north;fontStyle=0;html=1;" vertex="1" parent="1">
          <mxGeometry x="864.75" y="590" width="120" height="60" as="geometry" />
        </mxCell>
        <mxCell id="Rw-t_OHXO04xblRP0RzA-22" value="" style="endArrow=classic;html=1;rounded=0;exitX=0.5;exitY=1;exitDx=0;exitDy=0;exitPerimeter=0;" edge="1" parent="1" source="3RuBWUDgJBx3NYMwp4YM-69" target="3RuBWUDgJBx3NYMwp4YM-70">
          <mxGeometry width="50" height="50" relative="1" as="geometry">
            <mxPoint x="570" y="580" as="sourcePoint" />
            <mxPoint x="620" y="530" as="targetPoint" />
          </mxGeometry>
        </mxCell>
        <mxCell id="Rw-t_OHXO04xblRP0RzA-23" value="" style="endArrow=classic;html=1;rounded=0;exitX=0.5;exitY=1;exitDx=0;exitDy=0;exitPerimeter=0;entryX=0.5;entryY=0;entryDx=0;entryDy=0;entryPerimeter=0;" edge="1" parent="1" source="Rw-t_OHXO04xblRP0RzA-20" target="Rw-t_OHXO04xblRP0RzA-21">
          <mxGeometry width="50" height="50" relative="1" as="geometry">
            <mxPoint x="570" y="580" as="sourcePoint" />
            <mxPoint x="620" y="530" as="targetPoint" />
          </mxGeometry>
        </mxCell>
      </root>
    </mxGraphModel>
  </diagram>
</mxfile>
